<svg width="16" height="16" viewBox="0 0 16 16" fill="none" xmlns="http://www.w3.org/2000/svg">
<path d="M12.1644 10.5848C11.6416 10.0687 10.9891 10.0687 10.4697 10.5848C10.0734 10.9777 9.67722 11.3706 9.28767 11.7701C9.18112 11.88 9.09122 11.9033 8.96137 11.83C8.705 11.6902 8.43198 11.577 8.18559 11.4238C7.0369 10.7013 6.07467 9.77239 5.22231 8.72692C4.79946 8.20751 4.42322 7.65148 4.16019 7.02553C4.10692 6.899 4.11691 6.81576 4.22012 6.71255C4.61634 6.32965 5.00256 5.93677 5.39212 5.54388C5.93483 4.99784 5.93483 4.35857 5.38879 3.8092C5.07914 3.49622 4.76949 3.18991 4.45985 2.87693C4.14021 2.5573 3.82391 2.23433 3.50094 1.91803C2.97821 1.40861 2.32562 1.40861 1.80621 1.92135C1.40667 2.31424 1.02377 2.71711 0.61757 3.10334C0.241333 3.4596 0.0515499 3.89577 0.0115955 4.40518C-0.0516656 5.23424 0.151436 6.01668 0.437775 6.77914C1.02377 8.35734 1.91609 9.75907 2.99818 11.0443C4.45985 12.7823 6.20452 14.1574 8.24552 15.1496C9.16447 15.5957 10.1167 15.9387 11.1522 15.9953C11.8647 16.0352 12.484 15.8554 12.9801 15.2994C13.3197 14.9198 13.7026 14.5736 14.0622 14.2107C14.5949 13.6713 14.5983 13.0187 14.0689 12.486C13.4363 11.85 12.8003 11.2174 12.1644 10.5848Z" fill="#DBDBDB"/>
<path d="M11.5284 7.93113L12.757 7.72136C12.5639 6.59265 12.0312 5.57049 11.2221 4.75808C10.3664 3.90239 9.28433 3.36301 8.09236 3.19653L7.91923 4.43179C8.84151 4.56164 9.68055 4.97783 10.3431 5.64041C10.9691 6.26636 11.3786 7.05879 11.5284 7.93113Z" fill="#DBDBDB"/>
<path d="M13.4496 2.59037C12.0312 1.17199 10.2366 0.276351 8.25551 0L8.08237 1.23526C9.79375 1.47498 11.3453 2.25076 12.5706 3.4727C13.7326 4.63471 14.495 6.10303 14.7714 7.71785L16 7.50809C15.677 5.63689 14.7947 3.93883 13.4496 2.59037Z" fill="#DBDBDB"/>
</svg>
