<svg width="16" height="12" viewBox="0 0 16 12" fill="none" xmlns="http://www.w3.org/2000/svg">
<path d="M15.9882 1.14692C15.9882 1.12864 16.0008 1.11085 15.9999 1.09277L11.1173 5.79747L15.9941 10.3519C15.9969 10.3193 15.9882 10.2865 15.9882 10.2533V1.14692Z" fill="#DBDBDB"/>
<path d="M10.3719 6.52148L8.3787 8.43923C8.27784 8.53627 8.14757 8.58493 8.01723 8.58493C7.8896 8.58493 7.76198 8.53836 7.66181 8.445L5.67399 6.59267L0.765343 11.3241C0.884698 11.3669 1.01281 11.4002 1.14697 11.4002H14.8876C15.0868 11.4002 15.2736 11.3396 15.4361 11.2491L10.3719 6.52148Z" fill="#DBDBDB"/>
<path d="M8.01155 7.34567L15.4632 0.167598C15.2944 0.0672894 15.0981 0 14.8876 0H1.14698C0.87289 0 0.621737 0.106426 0.426125 0.268741L8.01155 7.34567Z" fill="#DBDBDB"/>
<path d="M0 1.32178V10.2532C0 10.3557 0.0235652 10.4546 0.0491463 10.549L4.8969 5.88077L0 1.32178Z" fill="#DBDBDB"/>
</svg>
