<svg width="30" height="30" viewBox="0 0 30 30" fill="none" xmlns="http://www.w3.org/2000/svg">
<rect x="1" y="1" width="28" height="28" stroke="url(#paint0_linear)" stroke-width="2"/>
<path d="M19.593 17.8504C19.0164 17.2812 18.2967 17.2812 17.7238 17.8504C17.2868 18.2837 16.8498 18.717 16.4202 19.1577C16.3027 19.2788 16.2035 19.3045 16.0603 19.2238C15.7776 19.0695 15.4764 18.9447 15.2047 18.7757C13.9378 17.9789 12.8765 16.9543 11.9365 15.8013C11.4701 15.2284 11.0551 14.6152 10.765 13.9248C10.7063 13.7852 10.7173 13.6934 10.8311 13.5796C11.2681 13.1573 11.6941 12.724 12.1237 12.2907C12.7223 11.6884 12.7223 10.9834 12.1201 10.3775C11.7786 10.0323 11.437 9.69443 11.0955 9.34924C10.743 8.99671 10.3941 8.64051 10.0379 8.29165C9.4614 7.72981 8.74166 7.72981 8.16879 8.29533C7.72813 8.72864 7.30583 9.17298 6.85782 9.59895C6.44287 9.99188 6.23355 10.4729 6.18949 11.0348C6.11971 11.9492 6.34372 12.8121 6.65953 13.653C7.30583 15.3937 8.28998 16.9397 9.48344 18.3571C11.0955 20.274 13.0198 21.7906 15.2708 22.8849C16.2843 23.377 17.3346 23.7552 18.4766 23.8177C19.2625 23.8617 19.9455 23.6634 20.4927 23.0502C20.8672 22.6315 21.2895 22.2496 21.6861 21.8494C22.2737 21.2545 22.2773 20.5347 21.6935 19.9472C20.9957 19.2458 20.2944 18.5481 19.593 17.8504Z" fill="url(#paint1_linear)"/>
<path d="M18.8916 14.9236L20.2466 14.6923C20.0336 13.4474 19.4461 12.32 18.5538 11.424C17.61 10.4803 16.4165 9.88536 15.1019 9.70175L14.9109 11.0641C15.9281 11.2073 16.8535 11.6664 17.5843 12.3971C18.2747 13.0875 18.7264 13.9615 18.8916 14.9236Z" fill="url(#paint2_linear)"/>
<path d="M21.0104 9.03341C19.4461 7.46906 17.4668 6.48124 15.2818 6.17645L15.0909 7.53883C16.9784 7.80323 18.6896 8.65885 20.041 10.0065C21.3226 11.2881 22.1635 12.9076 22.4683 14.6886L23.8233 14.4572C23.4671 12.3935 22.494 10.5206 21.0104 9.03341Z" fill="url(#paint3_linear)"/>
<defs>
<linearGradient id="paint0_linear" x1="0" y1="15" x2="28.2353" y2="15" gradientUnits="userSpaceOnUse">
<stop stop-color="#56AB2F"/>
<stop offset="1" stop-color="#A8E063"/>
</linearGradient>
<linearGradient id="paint1_linear" x1="-0.882341" y1="15.8823" x2="28.6765" y2="15.8823" gradientUnits="userSpaceOnUse">
<stop stop-color="#56AB2F"/>
<stop offset="1" stop-color="#A8E063"/>
<stop offset="1" stop-color="#A8E063"/>
</linearGradient>
<linearGradient id="paint2_linear" x1="0.882378" y1="15" x2="29.5588" y2="15" gradientUnits="userSpaceOnUse">
<stop stop-color="#56AB2F"/>
<stop offset="1" stop-color="#A8E063"/>
<stop offset="1" stop-color="#A8E063"/>
</linearGradient>
<linearGradient id="paint3_linear" x1="0.882383" y1="15" x2="27.7941" y2="15" gradientUnits="userSpaceOnUse">
<stop stop-color="#56AB2F"/>
<stop offset="1" stop-color="#A8E063"/>
<stop offset="1" stop-color="#A8E063"/>
</linearGradient>
</defs>
</svg>
