<svg width="35" height="38" viewBox="0 0 35 38" fill="none" xmlns="http://www.w3.org/2000/svg">
<path d="M18.5134 23.5685C19.1593 23.5183 19.748 23.1888 20.1302 22.6633L25.939 14.6329C26.1171 14.3866 26.0904 14.0466 25.8745 13.8307C25.6586 13.6154 25.3186 13.5887 25.0723 13.7662L17.0406 19.5768C16.517 19.9578 16.1875 20.5465 16.1373 21.1924C16.087 21.8382 16.3209 22.4704 16.7782 22.9276C17.1944 23.3446 17.7559 23.5753 18.3397 23.5753C18.3974 23.5753 18.4551 23.5729 18.5134 23.5685ZM17.3744 21.2892C17.3961 21.0056 17.5412 20.7469 17.7696 20.5807L22.6689 17.0363L19.1258 21.9344C18.9582 22.1645 18.6995 22.3091 18.416 22.3314C18.1337 22.35 17.8564 22.252 17.6548 22.0504C17.455 21.85 17.352 21.5721 17.3744 21.2892Z" fill="white"/>
<path d="M32.4104 12.1376C32.4042 12.1245 32.4042 12.1109 32.3974 12.0978C32.39 12.0854 32.3782 12.0786 32.3701 12.0668C31.7429 10.991 31.0009 9.99034 30.1584 9.08331L31.491 7.75131L32.3682 8.62856L35 5.99619L32.3682 3.36444L29.7359 5.99619L30.6138 6.87406L29.2811 8.20606C28.3741 7.36356 27.374 6.62093 26.2976 5.99371C26.2858 5.98564 26.279 5.97385 26.2666 5.96641C26.2536 5.95896 26.2399 5.95959 26.2269 5.95276C24.308 4.8472 22.1521 4.11079 19.8535 3.84091V3.10201H20.7841C21.6396 3.10201 22.3351 2.40654 22.3351 1.55101C22.3351 0.695471 21.639 0 20.7835 0H15.1999C14.3443 0 13.6488 0.695471 13.6488 1.55101C13.6488 2.40654 14.3443 3.10201 15.1999 3.10201H16.1305V3.8192C15.4604 3.89054 14.7916 3.99973 14.1303 4.15111C13.7965 4.22742 13.5874 4.56058 13.6644 4.89435C13.7407 5.22813 14.0738 5.43783 14.4076 5.36028C14.9784 5.22937 15.5547 5.13073 16.1323 5.06434L16.798 5.01285C17.0015 4.99734 17.1889 4.98617 17.3713 4.97749V6.20402C17.3713 6.54711 17.6486 6.82443 17.9917 6.82443C18.3347 6.82443 18.6121 6.54711 18.6121 6.20402V4.98183C20.9454 5.08916 23.1441 5.71577 25.099 6.74688L24.4873 7.8059C24.316 8.10308 24.4178 8.48214 24.7143 8.65337C24.8117 8.70983 24.9185 8.73651 25.0239 8.73651C25.2386 8.73651 25.447 8.62545 25.5618 8.4263L26.1717 7.36976C28.1129 8.60126 29.7619 10.2503 30.9934 12.1915L29.9369 12.8014C29.641 12.9726 29.5392 13.3517 29.7111 13.6489C29.8265 13.848 30.0343 13.9591 30.249 13.9591C30.3544 13.9591 30.4611 13.9324 30.5585 13.8759L31.6176 13.2642C32.6629 15.247 33.2914 17.4817 33.3851 19.8523H32.1598C31.8167 19.8523 31.5394 20.1296 31.5394 20.4727C31.5394 20.8157 31.8167 21.0931 32.1598 21.0931H33.3851C33.2914 23.4636 32.6629 25.6983 31.6176 27.6811L30.5585 27.0694C30.262 26.8982 29.8823 26.9987 29.7111 27.2965C29.5398 27.5936 29.6416 27.9727 29.9381 28.1439L30.9947 28.7538C29.7632 30.695 28.1141 32.3441 26.1729 33.5756L25.5631 32.519C25.3912 32.2212 25.0109 32.1201 24.7156 32.2919C24.4184 32.4632 24.3167 32.8429 24.4885 33.1394L25.1002 34.1984C23.1453 35.2295 20.9466 35.8562 18.6133 35.9635V34.7425C18.6133 34.3994 18.336 34.1221 17.9929 34.1221C17.6498 34.1221 17.3725 34.3994 17.3725 34.7425V35.9684C16.3817 35.9343 15.3878 35.8102 14.4095 35.5857C14.0757 35.5056 13.7425 35.7178 13.6662 36.0516C13.5893 36.3854 13.7984 36.7185 14.1321 36.7948C15.3705 37.0802 16.6355 37.2241 17.8905 37.2241C17.9209 37.2241 17.9501 37.2223 17.9805 37.2217C17.9848 37.2217 17.9879 37.2241 17.9917 37.2241C17.9966 37.2241 18.001 37.221 18.0059 37.221C20.9882 37.2006 23.7862 36.3953 26.207 35.0043C26.2263 34.9957 26.2467 34.9913 26.2654 34.9801C26.2778 34.9727 26.2846 34.9609 26.2964 34.9528C28.8022 33.4924 30.896 31.401 32.3596 28.8971C32.3713 28.8803 32.3862 28.8673 32.3968 28.8487C32.4042 28.8357 32.4036 28.822 32.4098 28.809C33.8268 26.3522 34.6414 23.507 34.6414 20.4733C34.6414 17.4395 33.8268 14.5943 32.4104 12.1376ZM32.3676 5.11894L33.2449 5.99619L32.3676 6.87406L31.4898 5.99619L32.3676 5.11894ZM17.3713 3.73544V1.86121H15.1999C15.0292 1.86121 14.8897 1.72162 14.8897 1.55101C14.8897 1.3804 15.0292 1.2408 15.1999 1.2408H20.7835C20.9541 1.2408 21.0937 1.3804 21.0937 1.55101C21.0937 1.72162 20.9541 1.86121 20.7835 1.86121H18.6121V3.73544C18.3962 3.72676 18.1902 3.72241 17.9917 3.72241C17.9743 3.72241 17.9544 3.72365 17.9371 3.72365C17.9216 3.72365 17.906 3.72241 17.8905 3.72241C17.7888 3.72241 17.687 3.72924 17.5853 3.7311C17.5133 3.73296 17.4457 3.73234 17.3713 3.73544Z" fill="white"/>
<path d="M12.4081 8.68567H9.30604C8.96296 8.68567 8.68564 8.96299 8.68564 9.30607C8.68564 9.64915 8.96296 9.92647 9.30604 9.92647H12.4081C12.7511 9.92647 13.0285 9.64915 13.0285 9.30607C13.0285 8.96299 12.7511 8.68567 12.4081 8.68567Z" fill="white"/>
<path d="M12.408 13.0284H6.20402C5.86094 13.0284 5.58362 13.3058 5.58362 13.6488C5.58362 13.9919 5.86094 14.2692 6.20402 14.2692H12.408C12.7511 14.2692 13.0284 13.9919 13.0284 13.6488C13.0284 13.3058 12.7511 13.0284 12.408 13.0284Z" fill="white"/>
<path d="M12.4081 17.3712H3.10202C2.75893 17.3712 2.48161 17.6485 2.48161 17.9916C2.48161 18.3347 2.75893 18.612 3.10202 18.612H12.4081C12.7511 18.612 13.0285 18.3347 13.0285 17.9916C13.0285 17.6485 12.7511 17.3712 12.4081 17.3712Z" fill="white"/>
<path d="M12.408 21.7141H0.620402C0.27732 21.7141 0 21.9914 0 22.3345C0 22.6776 0.27732 22.9549 0.620402 22.9549H12.408C12.7511 22.9549 13.0285 22.6776 13.0285 22.3345C13.0285 21.9914 12.7511 21.7141 12.408 21.7141Z" fill="white"/>
<path d="M12.408 26.0569H4.34281C3.99973 26.0569 3.72241 26.3342 3.72241 26.6773C3.72241 27.0204 3.99973 27.2977 4.34281 27.2977H12.408C12.7511 27.2977 13.0284 27.0204 13.0284 26.6773C13.0284 26.3342 12.7511 26.0569 12.408 26.0569Z" fill="white"/>
<path d="M12.408 30.3997H8.06523C7.72214 30.3997 7.44482 30.677 7.44482 31.0201C7.44482 31.3631 7.72214 31.6405 8.06523 31.6405H12.408C12.7511 31.6405 13.0284 31.3631 13.0284 31.0201C13.0284 30.677 12.7511 30.3997 12.408 30.3997Z" fill="white"/>
</svg>
