<svg width="35" height="35" viewBox="0 0 35 35" fill="none" xmlns="http://www.w3.org/2000/svg">
<path d="M6.15582 27.0668C5.66582 27.0668 5.19478 27.1891 4.77688 27.4188C2.57549 24.5968 1.36719 21.0913 1.36719 17.5C1.36719 8.6042 8.6042 1.36719 17.5 1.36719C18.5815 1.36719 19.6624 1.4748 20.7129 1.68709C21.0825 1.76186 21.4435 1.5226 21.5182 1.1525C21.593 0.782394 21.3538 0.421906 20.9837 0.34687C19.8442 0.116692 18.6723 0 17.5 0C12.8257 0 8.4309 1.82034 5.12562 5.12562C1.82034 8.4309 0 12.8257 0 17.5C0 21.432 1.33514 25.2692 3.76591 28.3454C3.45295 28.8129 3.28472 29.3625 3.28472 29.9379C3.28472 30.7048 3.58353 31.4258 4.12586 31.9679C4.66793 32.5102 5.38891 32.809 6.15582 32.809C6.92272 32.809 7.6437 32.5102 8.18604 31.9679C8.72837 31.4258 9.02691 30.7046 9.02691 29.9377C9.02691 29.171 8.72837 28.4498 8.18604 27.9077C7.6437 27.3654 6.92272 27.0668 6.15582 27.0668ZM7.21912 31.0012C6.93527 31.2854 6.55743 31.4418 6.15582 31.4418C5.7542 31.4418 5.37663 31.2854 5.09251 31.0012C4.80839 30.7171 4.65191 30.3395 4.65191 29.9379C4.65191 29.5361 4.80839 29.1585 5.09251 28.8744C5.37636 28.5902 5.7542 28.434 6.15582 28.434C6.55743 28.434 6.93501 28.5905 7.21912 28.8744C7.50324 29.1585 7.65972 29.5361 7.65972 29.9379C7.65972 30.3395 7.50324 30.7171 7.21912 31.0012Z" fill="white"/>
<path d="M31.2336 6.65383C31.9767 5.53899 31.8573 4.01479 30.8744 3.03185C30.3321 2.48978 29.6111 2.19098 28.8442 2.19098C28.0773 2.19098 27.3563 2.48978 26.814 3.03185C26.2716 3.57419 25.9731 4.29517 25.9731 5.06207C25.9731 5.82898 26.2716 6.54996 26.814 7.09229C27.3563 7.63463 28.0773 7.93317 28.8442 7.93317C29.3342 7.93317 29.8052 7.81087 30.2231 7.58122C32.4245 10.4035 33.6328 13.9087 33.6328 17.5C33.6328 26.3958 26.3958 33.6328 17.5 33.6328C16.4292 33.6328 15.3584 33.5273 14.3178 33.3191C13.9477 33.2451 13.5875 33.4852 13.5133 33.8553C13.4393 34.2256 13.6794 34.5856 14.0495 34.6598C15.1782 34.8855 16.3392 35 17.5 35C22.1743 35 26.5691 33.1797 29.8744 29.8744C33.1797 26.5691 35 22.1743 35 17.5C35 13.5677 33.6646 9.73027 31.2336 6.65383ZM27.7809 6.12565C27.4968 5.84153 27.3403 5.46395 27.3403 5.06207C27.3403 4.66046 27.4968 4.28288 27.7809 3.99876C28.0647 3.71465 28.4426 3.55817 28.8442 3.55817C29.2458 3.55817 29.6236 3.71465 29.9078 3.99876C30.4939 4.58516 30.4939 5.53925 29.9078 6.12565C29.6236 6.4095 29.2458 6.56598 28.8442 6.56598C28.4423 6.56598 28.0647 6.4095 27.7809 6.12565Z" fill="white"/>
<path d="M14.6791 29.2578C14.6791 29.6354 14.9854 29.9414 15.3627 29.9414H19.637C20.0146 29.9414 20.3206 29.6354 20.3206 29.2578V27.9325C21.2194 27.6906 22.0787 27.3344 22.8862 26.8692L23.8219 27.8049C23.9501 27.9331 24.1239 28.0052 24.3055 28.0052C24.4865 28.0052 24.6606 27.9331 24.7888 27.8046L27.81 24.7813C28.0767 24.5143 28.0767 24.0815 27.81 23.8147L26.8754 22.8801C27.3405 22.0726 27.6968 21.2133 27.9387 20.3145H29.2589C29.6365 20.3145 29.9425 20.0085 29.9425 19.6309V15.3566C29.9425 14.979 29.6365 14.673 29.2589 14.673H27.9384C27.6965 13.7744 27.3405 12.9151 26.8754 12.1076L27.8049 11.1781C27.9331 11.0499 28.0052 10.8758 28.0052 10.6945C28.0049 10.5132 27.9328 10.3391 27.8046 10.2109L24.7811 7.18975C24.5143 6.92299 24.0815 6.92299 23.8144 7.19002L22.8862 8.11848C22.0787 7.65331 21.2194 7.2971 20.3206 7.05517V5.74219C20.3206 5.36461 20.0146 5.05859 19.637 5.05859H15.3627C14.9854 5.05859 14.6791 5.36461 14.6791 5.74219V7.05544C13.7806 7.2971 12.9213 7.65331 12.1138 8.11848L11.1853 7.19002C10.9185 6.92326 10.4857 6.92299 10.2187 7.18975L7.19536 10.2112C7.06692 10.3394 6.99482 10.5132 6.99482 10.6945C6.99482 10.8758 7.06692 11.0499 7.19509 11.1781L8.12462 12.1076C7.65946 12.9151 7.30324 13.7741 7.06131 14.673H5.74352C5.36594 14.673 5.05993 14.979 5.05993 15.3563L5.05753 19.6306C5.05726 19.8119 5.12936 19.986 5.25753 20.1142C5.3857 20.2424 5.55954 20.3145 5.74112 20.3145H7.06131C7.30324 21.2133 7.65946 22.0726 8.12462 22.8801L7.19002 23.8147C6.92326 24.0815 6.92299 24.5143 7.19002 24.7813L10.2112 27.8046C10.3394 27.9328 10.5132 28.0052 10.6945 28.0052H10.6948C10.8761 28.0052 11.0499 27.9331 11.1781 27.8049L12.1135 26.8692C12.9213 27.3344 13.7806 27.6906 14.6791 27.9325V29.2578ZM12.3816 25.4316C12.1111 25.2567 11.7551 25.2946 11.5271 25.5223L10.6948 26.3547L8.63998 24.2983L9.47151 23.4665C9.69929 23.2387 9.73721 22.8828 9.5623 22.6123C8.94253 21.6531 8.50674 20.6018 8.26748 19.4872C8.19965 19.1724 7.92141 18.9473 7.59911 18.9473H6.42498L6.42658 16.0402H7.59911C7.92141 16.0402 8.19965 15.8153 8.26748 15.5002C8.50674 14.3859 8.94253 13.3346 9.5623 12.3755C9.73721 12.1049 9.69929 11.749 9.47151 11.5212L8.64533 10.6948L10.7017 8.63998L11.5271 9.46564C11.7551 9.69341 12.1108 9.73106 12.3816 9.55643C13.3405 8.93665 14.3918 8.50086 15.5064 8.2616C15.8212 8.19378 16.0463 7.91527 16.0463 7.59323V6.42578H18.9534V7.59296C18.9534 7.91527 19.1783 8.19378 19.4934 8.26134C20.6077 8.50086 21.6592 8.93639 22.6181 9.55616C22.8886 9.73106 23.2446 9.69341 23.4724 9.46537L24.298 8.63998L26.3544 10.6948L25.5282 11.521C25.3002 11.749 25.2625 12.1049 25.4374 12.3755C26.0572 13.3346 26.4927 14.3859 26.7323 15.5002C26.7998 15.8153 27.0783 16.0402 27.4006 16.0402H28.5753V18.9473H27.4006C27.0783 18.9473 26.8001 19.1724 26.7323 19.4872C26.493 20.6015 26.0572 21.6531 25.4374 22.612C25.2625 22.8828 25.3004 23.2387 25.5282 23.4665L26.3597 24.298L24.305 26.3544L23.4726 25.5223C23.2446 25.2943 22.8886 25.2567 22.6181 25.4316C21.659 26.0513 20.6077 26.4869 19.4934 26.7264C19.1783 26.7942 18.9534 27.0724 18.9534 27.3948V28.5742H16.0463V27.3948C16.0463 27.0727 15.8212 26.7942 15.5064 26.7264C14.3921 26.4871 13.3408 26.0513 12.3816 25.4316Z" fill="white"/>
<path d="M23.1485 17.5C23.1485 14.3854 20.6146 11.8516 17.5 11.8516C14.3854 11.8516 11.8515 14.3854 11.8515 17.5C11.8515 20.6146 14.3854 23.1485 17.5 23.1485C20.6146 23.1485 23.1485 20.6146 23.1485 17.5ZM13.2187 17.5C13.2187 15.1392 15.1392 13.2188 17.5 13.2188C19.8608 13.2188 21.7813 15.1395 21.7813 17.5C21.7813 19.8606 19.8608 21.7813 17.5 21.7813C15.1392 21.7813 13.2187 19.8608 13.2187 17.5Z" fill="white"/>
<path d="M23.7944 2.5854C23.9744 2.5854 24.1506 2.51223 24.2777 2.38512C24.4048 2.25722 24.478 2.08098 24.478 1.901C24.478 1.72209 24.4051 1.54559 24.2777 1.41768C24.1506 1.29057 23.9744 1.21741 23.7944 1.21741C23.6139 1.21741 23.4385 1.29057 23.3113 1.41768C23.184 1.54559 23.1108 1.72129 23.1108 1.901C23.1108 2.08151 23.184 2.25722 23.3113 2.38512C23.4385 2.51223 23.6139 2.5854 23.7944 2.5854Z" fill="white"/>
<path d="M11.2355 32.4269C11.0558 32.4269 10.8793 32.5 10.7522 32.6272C10.6251 32.7543 10.5519 32.9308 10.5519 33.1105C10.5519 33.291 10.6251 33.4667 10.7522 33.5938C10.8793 33.7209 11.0558 33.7941 11.2355 33.7941C11.4152 33.7941 11.5917 33.7209 11.7188 33.5938C11.8459 33.4667 11.9191 33.2902 11.9191 33.1105C11.9191 32.9308 11.8459 32.7543 11.7188 32.6272C11.5917 32.5 11.4152 32.4269 11.2355 32.4269Z" fill="white"/>
</svg>
