<svg width="35" height="23" viewBox="0 0 35 23" fill="none" xmlns="http://www.w3.org/2000/svg">
<path d="M8.16671 15.7502C6.23644 15.7502 4.6667 17.32 4.6667 19.2503C4.6667 21.1805 6.23644 22.7503 8.16671 22.7503C10.097 22.7503 11.6667 21.1805 11.6667 19.2503C11.6667 17.32 10.0969 15.7502 8.16671 15.7502ZM8.16671 21.5836C6.87984 21.5836 5.83339 20.5371 5.83339 19.2503C5.83339 17.9634 6.87991 16.9169 8.16671 16.9169C9.45351 16.9169 10.5 17.9635 10.5 19.2503C10.5 20.5371 9.45351 21.5836 8.16671 21.5836Z" fill="white"/>
<path d="M28.0001 15.7502C26.0698 15.7502 24.5001 17.32 24.5001 19.2503C24.5001 21.1805 26.0698 22.7503 28.0001 22.7503C29.9303 22.7503 31.5001 21.1805 31.5001 19.2503C31.5001 17.32 29.9303 15.7502 28.0001 15.7502ZM28.0001 21.5836C26.7132 21.5836 25.6668 20.5371 25.6668 19.2503C25.6668 17.9634 26.7133 16.9169 28.0001 16.9169C29.2869 16.9169 30.3334 17.9635 30.3334 19.2503C30.3334 20.5371 29.2869 21.5836 28.0001 21.5836Z" fill="white"/>
<path d="M34.9073 12.518L29.6573 4.35126C29.55 4.1844 29.3651 4.0835 29.1667 4.0835H22.7501C22.4275 4.0835 22.1667 4.34483 22.1667 4.66681V19.2501C22.1667 19.5727 22.4275 19.8335 22.7501 19.8335H25.0834V18.6668H23.3334V5.25019H28.8482L33.8334 13.005V18.6669H30.9167V19.8335H34.4167C34.7393 19.8335 35 19.5728 35 19.2502V12.8335C35.0001 12.7221 34.968 12.6118 34.9073 12.518Z" fill="white"/>
<path d="M25.6667 11.6668V7.58344H30.3334V6.41675H25.0834C24.7608 6.41675 24.5001 6.67809 24.5001 7.00006V12.2501C24.5001 12.5727 24.7608 12.8334 25.0834 12.8334H33.8334V11.6667H25.6667V11.6668Z" fill="white"/>
<path d="M22.75 0H0.583312C0.261338 0 0 0.261338 0 0.583311V19.25C0 19.5726 0.261338 19.8333 0.583312 19.8333H5.25001V18.6667H1.16669V1.16662H22.1667V18.6667H11.0833V19.8333H22.75C23.0726 19.8333 23.3334 19.5726 23.3334 19.25V0.583311C23.3334 0.261338 23.0726 0 22.75 0Z" fill="white"/>
<path d="M22.1667 16.3334H12.25V17.5001H22.1667V16.3334Z" fill="white"/>
<path d="M34.4167 16.3334H32.0834V17.5001H34.4167V16.3334Z" fill="white"/>
<path d="M22.75 2.33337H2.33331V3.50007H22.75V2.33337Z" fill="white"/>
<path d="M8.75002 18.6667H7.58333V19.8334H8.75002V18.6667Z" fill="white"/>
<path d="M28.5834 18.6667H27.4167V19.8334H28.5834V18.6667Z" fill="white"/>
</svg>
