<svg width="31" height="37" viewBox="0 0 31 37" fill="none" xmlns="http://www.w3.org/2000/svg">
<path d="M30.8961 30.3575L25.5644 20.9911C26.1048 20.7389 26.429 20.1625 26.393 19.5141L25.9967 16.1998L28.2663 13.8222C28.7706 13.3178 28.8066 12.4532 28.3023 11.8408L26.0327 9.39116L26.5011 6.04087C26.5731 5.32038 26.0688 4.59989 25.3483 4.45579L22.07 3.80735L20.485 0.889357C20.1607 0.20489 19.3682 -0.0833068 18.6477 0.20489H18.6117L15.5856 1.60985L12.6316 0.168865C12.3074 -0.0112577 11.9111 -0.0472823 11.5509 0.0607915C11.1906 0.168865 10.9024 0.421037 10.7223 0.745258L9.10119 3.66325L5.82295 4.23964C5.06643 4.38374 4.56209 5.06821 4.63414 5.86075L5.03041 9.17501L2.76086 11.5526C2.25652 12.057 2.22049 12.9216 2.72484 13.534L4.99438 15.9837L4.52607 19.3339C4.45402 19.9824 4.85029 20.5948 5.4627 20.847L0.0950422 30.3575C-0.0490561 30.5736 -0.0130316 30.8618 0.0950422 31.078C0.23914 31.2941 0.455288 31.4382 0.70746 31.4382H6.47139L9.10119 36.0133C9.24529 36.2295 9.46143 36.3736 9.7136 36.3736C9.96578 36.3736 10.2179 36.2295 10.326 36.0133L15.4775 27.2233L20.6291 36.1214C20.7731 36.3375 20.9893 36.4816 21.2415 36.4816C21.4936 36.4816 21.7458 36.3375 21.8539 36.1214L24.4837 31.4382H30.2476C30.4998 31.4382 30.752 31.2941 30.86 31.078C31.0402 30.8618 31.0402 30.5736 30.8961 30.3575ZM9.74963 34.2121L7.51611 30.3575C7.37201 30.1413 7.15586 29.9972 6.90369 29.9972H1.9323L6.90369 21.2072L8.95709 21.5675L10.5422 24.4855C10.8664 25.1699 11.6589 25.4581 12.3794 25.1699H12.4154L13.8925 24.4855L14.6129 25.7463L9.74963 34.2121ZM11.8391 23.873C11.803 23.873 11.803 23.873 11.803 23.873L10.2179 20.883C10.0018 20.5228 9.64156 20.2346 9.20926 20.1985L5.895 19.5861L6.36332 16.2719C6.43537 15.8396 6.29127 15.3712 6.00307 15.083L3.76955 12.6334L6.0391 10.2557C6.36332 9.93153 6.50742 9.49923 6.43537 9.06694L6.0391 5.7887C6.0391 5.7887 6.0391 5.75268 6.07512 5.71665L9.35336 5.14026C9.74963 5.06821 10.1459 4.81604 10.362 4.41977L11.9832 1.50177L14.9372 2.94276C15.3334 3.15891 15.8378 3.15891 16.2341 2.94276L19.2241 1.57382C19.2601 1.57382 19.2601 1.57382 19.2601 1.57382L20.8452 4.56386C21.0613 4.92411 21.4216 5.21231 21.8179 5.24833L25.0961 5.89677L24.6278 9.21103C24.5557 9.64333 24.6998 10.1116 24.988 10.3998L27.2576 12.8495L24.952 15.2271C24.6278 15.5514 24.4837 15.9837 24.5557 16.416L24.952 19.7302L21.7098 20.2706C21.3135 20.3426 20.9172 20.5948 20.7011 20.9911L19.08 23.9091L16.126 22.4681C15.7297 22.2519 15.2254 22.2519 14.8291 22.4681L11.8391 23.873ZM24.0874 29.9972C23.8352 29.9972 23.5831 30.1413 23.475 30.3575L21.2415 34.3202L16.162 25.5302C16.126 25.4221 16.09 25.35 16.0179 25.278L15.2254 23.873L15.4775 23.765L18.4316 25.2059C18.6477 25.314 18.8638 25.35 19.08 25.35C19.5843 25.35 20.0887 25.0979 20.3409 24.6296L21.962 21.7116L24.1234 21.3153L29.0588 29.9972H24.0874Z" fill="white"/>
<path d="M22.6824 12.7054C22.6824 8.7427 19.4402 5.50049 15.4775 5.50049C11.5148 5.50049 8.27258 8.7427 8.27258 12.7054C8.27258 16.6681 11.5148 19.9103 15.4775 19.9103C19.4402 19.9103 22.6824 16.6681 22.6824 12.7054ZM15.4775 18.4693C12.3073 18.4693 9.71357 15.8756 9.71357 12.7054C9.71357 9.53524 12.3073 6.94147 15.4775 6.94147C18.6477 6.94147 21.2414 9.53524 21.2414 12.7054C21.2414 15.8756 18.6477 18.4693 15.4775 18.4693Z" fill="white"/>
</svg>
