<svg width="35" height="33" viewBox="0 0 35 33" fill="none" xmlns="http://www.w3.org/2000/svg">
<path d="M17.3899 32.2009C16.2404 32.2009 15.0914 31.9692 14.0274 31.5065L8.93958 29.2947C7.09892 28.4941 5.15272 27.987 3.15513 27.7873L1.48432 27.6202C1.20924 27.5928 1 27.3614 1 27.0851V21.8441C1 21.7278 1.03785 21.6145 1.10769 21.5216C1.23262 21.3545 4.22715 17.4424 8.80142 18.4603C11.3741 19.032 13.4455 20.1019 14.7302 20.8988C15.6628 21.4773 16.7561 21.7829 17.8918 21.7829H22.9796C23.8566 21.7829 24.6273 22.2469 25.0584 22.9429L29.4404 17.8945C30.2899 16.76 31.6798 16.0652 33.1349 16.0652H33.4623C33.6442 16.0652 33.8134 16.1569 33.9125 16.3089C34.0119 16.4609 34.0276 16.6532 33.9546 16.8194L29.9915 25.8263C29.125 27.7962 27.3606 29.2843 25.2723 29.8064L24.575 29.9806L20.5189 31.6031C19.5208 32.0022 18.4552 32.2009 17.3899 32.2009ZM2.07572 26.5984L3.26221 26.7171C5.37087 26.9279 7.42539 27.4636 9.36882 28.3085L14.4563 30.5203C16.2453 31.2982 18.3084 31.3286 20.1198 30.604L24.2092 28.9683C24.2319 28.9593 24.255 28.9519 24.2787 28.9461L25.0114 28.7627C26.7797 28.3205 28.2736 27.0608 29.0068 25.3931L32.6217 17.1778C31.6961 17.3141 30.8444 17.8129 30.277 18.5692L25.4227 24.1638C25.4234 24.1848 25.4237 24.2054 25.4237 24.2266C25.4237 25.574 24.3273 26.6704 22.9799 26.6704H15.8813C14.9585 26.6704 14.0465 26.8184 13.1711 27.1101L12.9735 26.6085L12.8064 26.0974L12.8338 26.0885C13.8163 25.7611 14.8425 25.5946 15.8813 25.5946H22.9799C23.7341 25.5946 24.3483 24.9808 24.3483 24.2263C24.3483 23.4718 23.7344 22.858 22.9799 22.858H17.8921C16.5558 22.858 15.2665 22.4964 14.1637 21.8124C12.9501 21.0595 10.9938 20.0493 8.5688 19.5099C5.10471 18.7416 2.61204 21.4001 2.07603 22.0342V26.5984H2.07572Z" fill="white" stroke="white" stroke-width="0.2"/>
<path d="M22.179 15.9436C21.3519 15.9436 20.4245 15.6882 19.4035 15.1778C19.2798 15.1156 19.1844 15.0079 19.1377 14.8778C19.0961 14.7611 18.1352 11.9971 19.6623 9.95302C20.7722 8.46714 22.859 7.79789 25.8683 7.96559C26.1428 7.98067 26.3615 8.20067 26.3751 8.47576C26.3859 8.6893 26.6077 13.7297 24.0375 15.4079C23.491 15.7652 22.8701 15.9436 22.179 15.9436ZM20.0894 14.3147C21.502 14.9771 22.6313 15.0421 23.4498 14.5076C24.9738 13.5122 25.3034 10.5573 25.3114 9.01946C22.9535 8.96192 21.3482 9.49332 20.5239 10.5964C19.5429 11.91 19.9242 13.7168 20.0894 14.3147Z" fill="white" stroke="white" stroke-width="0.2"/>
<path d="M13.9548 8.89762C13.0012 8.89762 11.9012 8.69331 10.9411 7.99021C9.3128 6.79696 8.56448 4.52521 8.71648 1.23836C8.7294 0.963584 8.94725 0.742655 9.22203 0.726347C9.45465 0.713116 14.9606 0.419263 16.8133 3.20025C17.6761 4.49475 17.6053 6.19017 16.6037 8.24037C16.5428 8.36499 16.4364 8.4613 16.3062 8.509C16.2339 8.53577 15.2243 8.89762 13.9548 8.89762ZM16.1207 8.00437H16.1259H16.1207ZM9.77497 1.78453C9.7285 4.41721 10.3337 6.21171 11.5765 7.1225C13.0646 8.21268 15.0963 7.74929 15.7351 7.56313C16.4659 5.97724 16.5277 4.71106 15.9185 3.79658C14.7862 2.09684 11.4655 1.76453 9.77497 1.78453Z" fill="white" stroke="white" stroke-width="0.2"/>
<path d="M18.1545 22.669C18.1376 22.669 18.1207 22.6681 18.1035 22.6665C17.817 22.6395 17.6025 22.3918 17.617 22.1041C17.6487 21.4714 17.7028 20.8714 17.7764 20.3028C18.0001 16.4972 17.8847 7.6348 12.2815 5.18305C12.0095 5.06397 11.8852 4.74704 12.0043 4.47472C12.123 4.20302 12.4409 4.07902 12.7126 4.19779C16.0145 5.64244 18.0918 9.23915 18.7186 14.599C18.7749 15.0793 18.817 15.5528 18.8484 16.0141C20.3241 12.2851 22.5817 10.9675 22.7162 10.8921C22.9747 10.7459 23.3027 10.8389 23.4485 11.097C23.5934 11.3555 23.5024 11.6826 23.2448 11.8284C23.1879 11.8617 19.726 13.9393 18.857 20.3462C18.7909 21.4422 18.6955 22.141 18.6866 22.205C18.6493 22.4733 18.4201 22.669 18.1545 22.669Z" fill="white" stroke="white" stroke-width="0.2"/>
</svg>
