<svg width="33" height="38" viewBox="0 0 33 38" fill="none" xmlns="http://www.w3.org/2000/svg">
<path d="M8 16.9093C8 21.8299 11.9888 25.8186 16.9093 25.8186C21.8299 25.8186 25.8186 21.8299 25.8186 16.9093C25.8186 11.9888 21.8299 8 16.9093 8C11.9912 8.0054 8.0057 11.9912 8 16.9093ZM16.9093 9.22879C21.1513 9.22879 24.5899 12.6674 24.5899 16.9093C24.5899 21.1513 21.1513 24.5899 16.9093 24.5899C12.6674 24.5899 9.22879 21.1513 9.22879 16.9093C9.23359 12.6695 12.6695 9.23359 16.9093 9.22879Z" fill="white"/>
<path d="M11 17C11 20.3138 13.6862 23 17 23C20.3138 23 23 20.3138 23 17C23 13.6862 20.3138 11 17 11C13.6879 11.0036 11.0038 13.6879 11 17ZM17 11.8275C19.8568 11.8275 22.1725 14.1432 22.1725 17C22.1725 19.8568 19.8568 22.1725 17 22.1725C14.1432 22.1725 11.8275 19.8568 11.8275 17C11.8308 14.1447 14.1447 11.8308 17 11.8275Z" fill="white"/>
<path d="M28.8219 27.5119L24.009 29.7859C23.3445 28.5499 22.0698 27.7633 20.6671 27.7237L16.2241 27.6016C15.5206 27.5815 14.8303 27.4033 14.2048 27.0802L13.7527 26.8459C11.4379 25.6393 8.67886 25.6423 6.36648 26.8537L6.39468 25.8295C6.40398 25.4902 6.13668 25.2076 5.79738 25.1983L0.925427 25.0642C0.58613 25.0549 0.303833 25.3222 0.294533 25.6615L0.000235494 36.3528C-0.00906437 36.6921 0.258233 36.9747 0.59753 36.984L5.46949 37.1181H5.48629C5.81928 37.1181 6.09168 36.8532 6.10068 36.5205L6.11478 36.009L7.38047 35.3313C7.87727 35.064 8.45806 35.0004 9.00076 35.154L16.5589 37.2753C16.5721 37.2792 16.5853 37.2822 16.5988 37.2852C17.1451 37.3995 17.7019 37.4568 18.2599 37.4565C19.4419 37.4571 20.6101 37.2024 21.6843 36.7092C21.7107 36.6972 21.7362 36.6831 21.7605 36.6672L32.7191 29.5789C32.9921 29.4022 33.0803 29.0437 32.9204 28.7605C32.1069 27.3169 30.3024 26.767 28.8219 27.5119ZM1.24552 35.7726L1.50592 26.3095L5.14939 26.4097L4.88899 35.8731L1.24552 35.7726ZM21.1308 35.6118C19.7962 36.2142 18.3055 36.3804 16.8709 36.0873L9.33315 33.9714C8.48476 33.7317 7.57667 33.831 6.80058 34.2483L6.15378 34.5948L6.32688 28.303C8.37646 26.9398 11.005 26.7997 13.1878 27.937L13.6399 28.1713C14.4301 28.5793 15.3016 28.8043 16.1905 28.8301L20.6338 28.9522C21.8817 28.9882 22.9416 29.8768 23.1948 31.0995L16.5766 30.9168C16.2373 30.9075 15.955 31.1751 15.9454 31.5141C15.9361 31.8534 16.2037 32.136 16.5427 32.1453L23.8464 32.3463H23.8635C24.1962 32.346 24.4683 32.0811 24.4773 31.7487C24.4848 31.4817 24.465 31.2144 24.4179 30.9516L29.3544 28.6192C29.3592 28.6171 29.364 28.6147 29.3688 28.6123C30.069 28.258 30.9156 28.3765 31.4916 28.9096L21.1308 35.6118Z" fill="white"/>
<path d="M17.4982 6.45114V0.614395C17.4982 0.275098 17.2231 0 16.8838 0C16.5445 0 16.2694 0.275098 16.2694 0.614395V6.45114C16.2694 6.79044 16.5445 7.06554 16.8838 7.06554C17.2231 7.06554 17.4982 6.79044 17.4982 6.45114Z" fill="white"/>
<path d="M22.1061 6.45119V3.68642C22.1061 3.34712 21.831 3.07202 21.4917 3.07202C21.1524 3.07202 20.8773 3.34712 20.8773 3.68642V6.45119C20.8773 6.79049 21.1524 7.06559 21.4917 7.06559C21.831 7.06559 22.1061 6.79049 22.1061 6.45119Z" fill="white"/>
<path d="M12.8902 6.45119V3.68642C12.8902 3.34712 12.6151 3.07202 12.2758 3.07202C11.9365 3.07202 11.6614 3.34712 11.6614 3.68642V6.45119C11.6614 6.79049 11.9365 7.06559 12.2758 7.06559C12.6151 7.06559 12.8902 6.79049 12.8902 6.45119Z" fill="white"/>
</svg>
